<?xml version="1.0" standalone="no"?>
<!DOCTYPE svg PUBLIC "-//W3C//DTD SVG 20010904//EN"
 "http://www.w3.org/TR/2001/REC-SVG-20010904/DTD/svg10.dtd">
<svg version="1.0" xmlns="http://www.w3.org/2000/svg"
 width="302.000000pt" height="302.000000pt" viewBox="0 0 302.000000 302.000000"
 preserveAspectRatio="xMidYMid meet">
<metadata>
Created by potrace 1.11, written by Peter Selinger 2001-2013
</metadata>
<g transform="translate(0.000000,302.000000) scale(0.100000,-0.100000)"
fill="#000000" stroke="none">
<path d="M256 1448 c1 -359 2 -659 3 -665 0 -7 8 -13 16 -13 8 0 15 -6 15 -14
0 -12 34 -14 202 -13 l201 2 2 23 c1 13 -5 27 -14 33 -14 9 -14 10 1 5 9 -3
19 0 22 7 3 7 5 6 5 -3 -2 -31 1 -40 16 -40 8 0 15 -7 15 -16 0 -14 2 -15 17
-3 11 10 14 10 9 2 -5 -10 10 -13 64 -13 51 0 69 3 64 12 -5 7 -3 8 7 2 24
-15 69 -11 70 6 0 10 2 11 6 3 2 -7 11 -13 19 -13 9 0 13 3 11 8 -3 4 12 7 32
7 72 1 277 104 266 133 -3 8 0 10 6 6 11 -6 99 72 99 89 0 4 -4 5 -10 2 -5 -3
-10 -1 -10 5 0 6 6 10 14 8 16 -3 66 64 66 87 0 8 4 15 8 15 6 0 38 82 47 120
1 3 4 19 8 35 14 59 16 139 4 154 -10 12 -9 13 1 7 10 -6 12 4 8 46 -3 29 -7
64 -10 78 -3 14 -8 37 -12 53 -3 15 -10 25 -15 22 -5 -4 -6 0 -3 8 2 7 -7 38
-22 68 -74 147 -216 285 -358 348 -105 46 -137 49 -514 51 l-357 1 1 -653z
m529 223 c-6 -10 79 -6 96 4 8 5 10 4 5 -3 -10 -16 16 -15 33 1 9 8 12 8 7 0
-6 -10 21 -27 34 -20 8 3 73 -45 98 -73 54 -62 65 -176 23 -257 -48 -94 -138
-143 -271 -150 -110 -6 -109 -6 -103 -43 2 -19 1 -30 -5 -26 -5 3 -9 115 -9
269 0 144 -3 269 -7 276 -4 7 -5 15 -2 18 3 4 6 1 6 -6 0 -7 5 -9 12 -5 7 4
26 9 43 10 18 1 29 6 27 13 -1 7 2 10 8 6 6 -3 8 -10 5 -14z m-79 -631 c1 -33
-3 -51 -13 -54 -9 -4 -11 -2 -7 6 10 16 11 57 2 85 -5 16 -3 21 5 17 8 -3 13
-24 13 -54z m1 -79 c-1 -16 -4 -18 -17 -8 -25 19 -26 20 -7 14 9 -4 17 -2 17
3 0 6 2 10 4 10 3 0 4 -9 3 -19z m633 -15 c0 -2 -8 -10 -17 -17 -16 -13 -17
-12 -4 4 13 16 21 21 21 13z m-634 -66 c1 -33 -3 -51 -13 -54 -9 -4 -11 -2 -7
6 10 16 11 57 2 85 -5 16 -3 21 5 17 8 -3 13 -24 13 -54z m404 -80 c0 -5 -2
-10 -4 -10 -3 0 -8 5 -11 10 -3 6 -1 10 4 10 6 0 11 -4 11 -10z m-280 -34 c0
-3 -4 -8 -10 -11 -5 -3 -10 -1 -10 4 0 6 5 11 10 11 6 0 10 -2 10 -4z"/>
<path d="M1740 1440 c0 -580 2 -660 15 -660 8 0 15 -6 15 -14 0 -12 34 -15
205 -15 l204 0 -2 319 c-1 175 1 316 4 312 3 -4 33 -74 67 -157 33 -82 87
-213 118 -290 32 -77 67 -150 79 -162 20 -21 27 -22 243 -21 208 1 222 2 222
20 0 10 -5 18 -10 18 -6 0 -9 3 -8 8 4 13 -13 52 -22 52 -5 0 -7 7 -4 15 4 8
1 15 -5 15 -6 0 -11 5 -11 12 0 15 -63 142 -72 146 -4 2 -5 9 -2 16 3 7 -2 19
-10 26 -9 7 -13 16 -10 21 3 5 1 9 -4 9 -5 0 -15 18 -22 40 -7 21 -16 37 -20
35 -4 -2 -7 2 -7 10 0 21 -35 95 -45 95 -4 0 -7 3 -6 8 4 14 -13 52 -23 52 -6
0 -8 4 -5 9 3 5 -6 30 -20 56 -25 44 -26 49 -12 78 9 18 17 37 19 42 1 6 11
19 21 29 10 11 18 24 18 29 0 5 9 22 21 38 11 16 17 34 13 40 -4 7 -3 9 4 6 6
-4 19 11 32 35 11 24 29 54 38 68 13 19 14 22 2 16 -8 -5 -6 0 5 11 11 10 29
37 40 59 11 21 24 42 29 45 5 4 5 12 1 19 -5 8 -4 11 2 7 13 -8 26 20 16 35
-3 7 -1 8 5 4 6 -3 16 3 22 14 6 11 7 20 3 20 -4 0 0 5 10 11 21 12 23 49 2
49 -8 0 -15 7 -15 15 0 13 -27 15 -207 13 l-207 -3 -143 -250 -143 -250 -1 85
c0 47 0 154 0 238 1 128 -2 152 -14 152 -8 0 -15 7 -15 15 0 13 -29 15 -205
15 l-205 0 0 -660z"/>
</g>
</svg>
